<svg width="48" height="48" viewBox="0 0 48 48" fill="none" xmlns="http://www.w3.org/2000/svg">
<rect width="48" height="48" rx="9" fill="url(#paint0_linear_26_2)"/>
<path opacity="0.9" d="M32.2642 16.6875H8.16825C6.50477 16.6875 5.15625 18.036 5.15625 19.6995V32.5005C5.15625 34.164 6.50477 35.5125 8.16825 35.5125H32.2642C33.9277 35.5125 35.2762 34.164 35.2762 32.5005V19.6995C35.2762 18.036 33.9277 16.6875 32.2642 16.6875Z" fill="white"/>
<path opacity="0.7" d="M35.9685 13.2188H12.4965C10.8761 13.2188 9.5625 14.5323 9.5625 16.1528V28.6223C9.5625 30.2427 10.8761 31.5563 12.4965 31.5563H35.9685C37.5889 31.5563 38.9025 30.2427 38.9025 28.6223V16.1528C38.9025 14.5323 37.5889 13.2188 35.9685 13.2188Z" fill="white"/>
<path d="M39.84 9.46875H16.26C14.6321 9.46875 13.3125 10.7884 13.3125 12.4162V24.9431C13.3125 26.571 14.6321 27.8906 16.26 27.8906H39.84C41.4679 27.8906 42.7875 26.571 42.7875 24.9431V12.4162C42.7875 10.7884 41.4679 9.46875 39.84 9.46875Z" fill="white"/>
<path d="M22.0994 16.6875H30.6392L24.946 28.0739H32.0625L19.2528 45.1534L23.5227 30.9205H16.4062L22.0994 16.6875Z" fill="#BBFF00"/>
<defs>
<linearGradient id="paint0_linear_26_2" x1="11.3906" y1="39.9844" x2="44.8594" y2="4.17188" gradientUnits="userSpaceOnUse">
<stop stop-color="#3B74F1"/>
<stop offset="1" stop-color="#1E40AF"/>
</linearGradient>
</defs>
</svg>
