<svg width="16" height="16" viewBox="0 0 16 16" fill="none" xmlns="http://www.w3.org/2000/svg">
<rect width="16" height="16" rx="3" fill="url(#paint0_linear_27_8)"/>
<path opacity="0.9" d="M10.7548 5.5625H2.72275C2.16826 5.5625 1.71875 6.01201 1.71875 6.5665V10.8335C1.71875 11.388 2.16826 11.8375 2.72275 11.8375H10.7548C11.3092 11.8375 11.7587 11.388 11.7587 10.8335V6.5665C11.7587 6.01201 11.3092 5.5625 10.7548 5.5625Z" fill="white"/>
<path opacity="0.7" d="M11.9895 4.40625H4.1655C3.62537 4.40625 3.1875 4.84412 3.1875 5.38425V9.54075C3.1875 10.0809 3.62537 10.5188 4.1655 10.5188H11.9895C12.5296 10.5188 12.9675 10.0809 12.9675 9.54075V5.38425C12.9675 4.84412 12.5296 4.40625 11.9895 4.40625Z" fill="white"/>
<path d="M13.28 3.15625H5.42C4.87738 3.15625 4.4375 3.59613 4.4375 4.13875V8.31437C4.4375 8.85699 4.87738 9.29687 5.42 9.29687H13.28C13.8226 9.29687 14.2625 8.85699 14.2625 8.31437V4.13875C14.2625 3.59613 13.8226 3.15625 13.28 3.15625Z" fill="white"/>
<path d="M7.36648 5.5625H10.2131L8.31534 9.35795H10.6875L6.41761 15.0511L7.84091 10.3068H5.46875L7.36648 5.5625Z" fill="#BBFF00"/>
<defs>
<linearGradient id="paint0_linear_27_8" x1="3.79687" y1="13.3281" x2="14.9531" y2="1.39063" gradientUnits="userSpaceOnUse">
<stop stop-color="#3B74F1"/>
<stop offset="1" stop-color="#1E40AF"/>
</linearGradient>
</defs>
</svg>
