<svg width="128" height="128" viewBox="0 0 128 128" fill="none" xmlns="http://www.w3.org/2000/svg">
<rect width="128" height="128" rx="24" fill="url(#paint0_linear_25_22)"/>
<path opacity="0.9" d="M86.038 44.5H21.782C17.346 44.5 13.75 48.096 13.75 52.532V86.668C13.75 91.104 17.346 94.7 21.782 94.7H86.038C90.474 94.7 94.07 91.104 94.07 86.668V52.532C94.07 48.096 90.474 44.5 86.038 44.5Z" fill="white"/>
<path opacity="0.7" d="M95.916 35.25H33.324C29.0029 35.25 25.5 38.7529 25.5 43.074V76.326C25.5 80.6471 29.0029 84.15 33.324 84.15H95.916C100.237 84.15 103.74 80.6471 103.74 76.326V43.074C103.74 38.7529 100.237 35.25 95.916 35.25Z" fill="white"/>
<path d="M106.24 25.25H43.36C39.019 25.25 35.5 28.769 35.5 33.11V66.515C35.5 70.856 39.019 74.375 43.36 74.375H106.24C110.581 74.375 114.1 70.856 114.1 66.515V33.11C114.1 28.769 110.581 25.25 106.24 25.25Z" fill="white"/>
<path d="M58.9318 44.5H81.7045L66.5227 74.8636H85.5L51.3409 120.409L62.7273 82.4545H43.75L58.9318 44.5Z" fill="#BBFF00"/>
<defs>
<linearGradient id="paint0_linear_25_22" x1="30.375" y1="106.625" x2="119.625" y2="11.125" gradientUnits="userSpaceOnUse">
<stop stop-color="#3B74F1"/>
<stop offset="1" stop-color="#1E40AF"/>
</linearGradient>
</defs>
</svg>
